# xmcd
#
# Track frame offsets: 
#        150
#        25001
#        39713
#        53333
#        77320
#        90511
#        102996
#        116606
#        140651
#        167936
#        180041
#        204121
#        224938
#        240978
#
# Disc length: 3492 seconds
#
# Revision: 0
# Processed by: cddbd v1.5.2PL0 Copyright (c) Steve Scherf et al.
# Submitted via: ExactAudioCopy v1.3
#
DISCID=ab0da20e
DTITLE=Sandy Mack - Still Going Strong
DYEAR=2009
DGENRE=Blues
TTITLE0=Drunked
TTITLE1=Never Enuff Rockin'
TTITLE2=Let's Work
TTITLE3=Life Boat
TTITLE4=It's My Life Baby
TTITLE5=Shake Dancer
TTITLE6=Get Right
TTITLE7=Turn My Luck Around
TTITLE8=Boogie Now
TTITLE9=Wondering
TTITLE10=Ghost Stories
TTITLE11=Road Warrior
TTITLE12=That's Not Right
TTITLE13=Love Explosion
EXTD=
EXTT0=
EXTT1=
EXTT2=
EXTT3=
EXTT4=
EXTT5=
EXTT6=
EXTT7=
EXTT8=
EXTT9=
EXTT10=
EXTT11=
EXTT12=
EXTT13=
PLAYORDER=
